<svg fill="none">
<g id="checkIcon">
<path id="Vector" d="M33.4688 8.23428C33.4688 8.94261 33.2704 9.54469 32.8737 10.0405L17.4888 29.2718L14.5988 32.8843C14.2021 33.3801 13.7204 33.628 13.1538 33.628C12.5871 33.628 12.1054 33.3801 11.7087 32.8843L8.81875 29.2718L1.12625 19.6562C0.729583 19.1603 0.53125 18.5582 0.53125 17.8499C0.53125 17.1416 0.729583 16.5395 1.12625 16.0437L4.01625 12.4312C4.41292 11.9353 4.89458 11.6874 5.46125 11.6874C6.02792 11.6874 6.50958 11.9353 6.90625 12.4312L13.1538 20.2671L27.0938 2.81553C27.4904 2.31969 27.9721 2.07178 28.5387 2.07178C29.1054 2.07178 29.5871 2.31969 29.9837 2.81553L32.8737 6.42803C33.2704 6.92386 33.4688 7.52594 33.4688 8.23428Z" fill="black"/>
</g>
</svg>
